<svg xmlns="http://www.w3.org/2000/svg" width="0" height="0" style="position:absolute;overflow:hidden" aria-hidden="true">
  <defs>
    <linearGradient id="g-red" x1="0" y1="0" x2="1" y2="1"><stop offset="0%" stop-color="#f87171"/><stop offset="100%" stop-color="#DC2626"/></linearGradient>
    <linearGradient id="g-amber" x1="0" y1="0" x2="0" y2="1"><stop offset="0%" stop-color="#fde68a"/><stop offset="60%" stop-color="#f59e0b"/><stop offset="100%" stop-color="#b45309"/></linearGradient>
    <linearGradient id="g-emerald" x1="0" y1="0" x2="1" y2="1"><stop offset="0%" stop-color="#6ee7b7"/><stop offset="100%" stop-color="#059669"/></linearGradient>
    <linearGradient id="g-blue" x1="0" y1="0" x2="1" y2="1"><stop offset="0%" stop-color="#93c5fd"/><stop offset="100%" stop-color="#2563eb"/></linearGradient>
    <linearGradient id="g-violet" x1="0" y1="0" x2="0" y2="1"><stop offset="0%" stop-color="#c4b5fd"/><stop offset="100%" stop-color="#7c3aed"/></linearGradient>

    <symbol id="wc-logo" viewBox="0 0 48 48">
      <rect x="2" y="2" width="44" height="44" rx="12" fill="url(#g-red)"/>
      <path d="M10 19 L16 33 L22 22 L26 22 L32 33 L38 19" stroke="#fff" stroke-width="3.5" fill="none" stroke-linecap="round" stroke-linejoin="round"/>
      <circle cx="24" cy="22" r="2" fill="#fff"/>
    </symbol>

    <symbol id="wc-medal-hex" viewBox="0 0 48 48">
      <polygon points="24,3 43,14 43,34 24,45 5,34 5,14" fill="url(#g-amber)" stroke="#fef3c7" stroke-width="0.8"/>
      <polygon points="24,9 37,17 37,31 24,39 11,31 11,17" fill="none" stroke="#fff" stroke-opacity="0.35" stroke-width="0.7"/>
    </symbol>

    <symbol id="wc-xp-bolt" viewBox="0 0 48 48">
      <path d="M28 3 L10 27 H22 L20 45 L38 21 H26 Z" fill="url(#g-amber)" stroke="#fff" stroke-opacity="0.3" stroke-width="0.6" stroke-linejoin="round"/>
    </symbol>

    <symbol id="wc-flame" viewBox="0 0 48 48">
      <path d="M24 4 C 30 14, 38 18, 38 30 C 38 40, 31 44, 24 44 C 17 44, 10 40, 10 30 C 10 23, 16 20, 19 14 C 21 18, 21 22, 23 20 C 26 16, 25 11, 24 4 Z" fill="url(#g-red)" stroke="#fca5a5" stroke-width="0.8"/>
      <path d="M24 18 C 27 24, 31 26, 31 32 C 31 37, 27 39, 24 39 C 21 39, 17 37, 17 32 C 17 28, 22 26, 24 18 Z" fill="#fbbf24"/>
    </symbol>

    <symbol id="wc-camera" viewBox="0 0 48 48">
      <rect x="3" y="11" width="42" height="30" rx="6" fill="url(#g-emerald)" opacity="0.15"/>
      <rect x="3" y="11" width="42" height="30" rx="6" fill="none" stroke="url(#g-emerald)" stroke-width="2.2"/>
      <path d="M16 11 L19 6 H29 L32 11" fill="none" stroke="url(#g-emerald)" stroke-width="2.2" stroke-linejoin="round"/>
      <circle cx="24" cy="26" r="8" fill="none" stroke="url(#g-emerald)" stroke-width="2"/>
      <circle cx="24" cy="26" r="3" fill="url(#g-emerald)"/>
      <circle cx="38" cy="18" r="1.5" fill="url(#g-emerald)"/>
    </symbol>

    <symbol id="wc-barbell" viewBox="0 0 48 48">
      <rect x="2" y="16" width="7" height="16" rx="2" fill="url(#g-red)"/>
      <rect x="39" y="16" width="7" height="16" rx="2" fill="url(#g-red)"/>
      <rect x="9" y="19" width="4" height="10" rx="1" fill="url(#g-red)" opacity="0.85"/>
      <rect x="35" y="19" width="4" height="10" rx="1" fill="url(#g-red)" opacity="0.85"/>
      <rect x="13" y="22.5" width="22" height="3" rx="1.5" fill="url(#g-red)"/>
    </symbol>

    <symbol id="wc-check" viewBox="0 0 48 48">
      <circle cx="24" cy="24" r="22" fill="url(#g-emerald)" opacity="0.15"/>
      <circle cx="24" cy="24" r="16" fill="url(#g-emerald)"/>
      <path d="M15 24 L22 31 L33 18" stroke="#fff" stroke-width="3.5" fill="none" stroke-linecap="round" stroke-linejoin="round"/>
    </symbol>

    <symbol id="wc-coach" viewBox="0 0 48 48">
      <path d="M24 3 L42 9 V24 C 42 34, 34 42, 24 45 C 14 42, 6 34, 6 24 V9 Z" fill="url(#g-blue)" opacity="0.18"/>
      <path d="M24 3 L42 9 V24 C 42 34, 34 42, 24 45 C 14 42, 6 34, 6 24 V9 Z" fill="none" stroke="url(#g-blue)" stroke-width="2.3" stroke-linejoin="round"/>
      <circle cx="24" cy="20" r="5.5" fill="url(#g-blue)"/>
      <path d="M14 34 C 14 29, 19 27, 24 27 C 29 27, 34 29, 34 34" fill="url(#g-blue)"/>
    </symbol>

    <symbol id="wc-coin" viewBox="0 0 48 48">
      <circle cx="24" cy="24" r="22" fill="url(#g-amber)"/>
      <circle cx="24" cy="24" r="17" fill="none" stroke="#fff" stroke-opacity="0.35" stroke-width="1"/>
      <path d="M13 19 L17 30 L21 22 L24 27 L27 22 L31 30 L35 19" stroke="#fff" stroke-width="2.8" fill="none" stroke-linecap="round" stroke-linejoin="round"/>
    </symbol>

    <symbol id="wc-level-ring" viewBox="0 0 48 48">
      <circle cx="24" cy="24" r="20" fill="url(#g-violet)" opacity="0.12"/>
      <circle cx="24" cy="24" r="18" fill="none" stroke="rgba(139,92,246,0.2)" stroke-width="3"/>
      <circle cx="24" cy="24" r="18" fill="none" stroke="url(#g-violet)" stroke-width="3" stroke-linecap="round" stroke-dasharray="95 18" transform="rotate(-90 24 24)"/>
    </symbol>
  </defs>
</svg>
